<svg width="201" height="140" viewBox="0 0 201 140" fill="none" xmlns="http://www.w3.org/2000/svg">
	<path d="M114.092 30.2872L107.74 33.6881C107.74 33.6881 116.825 36.333 116.825 49.3913C116.825 49.9338 116.744 53.0866 114.465 54.2416C114.471 54.2494 114.476 54.2546 114.476 54.2546L120.272 50.9479C122.548 49.7928 122.763 46.6678 122.763 46.1279C122.766 33.067 114.092 30.2872 114.092 30.2872Z" fill="#0078D4"/>
	<path d="M114.092 30.2872L107.74 33.6881C107.74 33.6881 116.825 36.333 116.825 49.3913C116.825 49.9338 116.744 53.0866 114.465 54.2416C114.471 54.2494 114.476 54.2546 114.476 54.2546L120.272 50.9479C122.548 49.7928 122.763 46.6678 122.763 46.1279C122.766 33.067 114.092 30.2872 114.092 30.2872Z" fill="url(#paint0_linear)"/>
	<path d="M84.5098 13.7023L90.4926 10.1482C85.7973 6.65975 82.3425 6.48325 80.061 7.96013L74.6882 10.9424C76.9619 9.81596 80.1675 10.476 84.5098 13.7023Z" fill="#0078D4"/>
	<path d="M84.5098 13.7023L90.4926 10.1482C85.7973 6.65975 82.3425 6.48325 80.061 7.96013L74.6882 10.9424C76.9619 9.81596 80.1675 10.476 84.5098 13.7023Z" fill="url(#paint1_linear)"/>
	<path d="M108.252 33.6069L114.131 30.3079C114.131 21.5193 104.039 7.75763 95.8059 7.75763C93.8696 7.75763 92.538 8.34423 91.6841 8.93602L86.6176 11.8041C87.4352 11.407 88.5175 11.0981 89.9269 11.0981C98.1471 11.0955 108.22 24.8157 108.252 33.6069Z" fill="#0078D4"/>
	<path d="M108.252 33.6069L114.131 30.3079C114.131 21.5193 104.039 7.75763 95.8059 7.75763C93.8696 7.75763 92.538 8.34423 91.6841 8.93602L86.6176 11.8041C87.4352 11.407 88.5175 11.0981 89.9269 11.0981C98.1471 11.0955 108.22 24.8157 108.252 33.6069Z" fill="url(#paint2_linear)"/>
	<path d="M84.5748 13.4342C84.5748 13.4342 86.0231 11.0437 89.9346 11.0437C98.1678 11.0437 108.259 24.8054 108.259 33.594C108.259 33.594 116.934 36.3738 116.934 49.4321C116.934 50.3224 116.347 58.2233 106.933 52.7882C106.933 52.7882 85.9946 40.6954 81.2758 37.9701C76.5571 35.2448 70.7534 25.1921 70.7534 18.9628C70.7534 12.7334 75.184 6.45736 84.5748 13.4342Z" fill="#C5E4EC"/>
	<path d="M181.351 100.651L173.583 104.81C173.583 104.81 184.693 108.045 184.693 124.015C184.693 124.679 184.595 128.535 181.808 129.947C181.814 129.957 181.82 129.963 181.82 129.963L188.909 125.919C191.693 124.506 191.956 120.684 191.956 120.024C191.959 104.051 181.351 100.651 181.351 100.651Z" fill="#0078D4"/>
	<path d="M181.351 100.651L173.583 104.81C173.583 104.81 184.693 108.045 184.693 124.015C184.693 124.679 184.595 128.535 181.808 129.947C181.814 129.957 181.82 129.963 181.82 129.963L188.909 125.919C191.693 124.506 191.956 120.684 191.956 120.024C191.959 104.051 181.351 100.651 181.351 100.651Z" fill="url(#paint3_linear)"/>
	<path d="M145.172 80.368L152.489 76.0214C146.747 71.7551 142.522 71.5392 139.732 73.3454L133.161 76.9927C135.941 75.6151 139.862 76.4223 145.172 80.368Z" fill="#0078D4"/>
	<path d="M145.172 80.368L152.489 76.0214C146.747 71.7551 142.522 71.5392 139.732 73.3454L133.161 76.9927C135.941 75.6151 139.862 76.4223 145.172 80.368Z" fill="url(#paint4_linear)"/>
	<path d="M174.208 104.711L181.398 100.677C181.398 89.9282 169.056 73.0978 158.987 73.0978C156.619 73.0978 154.991 73.8152 153.946 74.5389L147.75 78.0466C148.75 77.5609 150.074 77.1832 151.797 77.1832C161.85 77.18 174.17 93.9596 174.208 104.711Z" fill="#0078D4"/>
	<path d="M174.208 104.711L181.398 100.677C181.398 89.9282 169.056 73.0978 158.987 73.0978C156.619 73.0978 154.991 73.8152 153.946 74.5389L147.75 78.0466C148.75 77.5609 150.074 77.1832 151.797 77.1832C161.85 77.18 174.17 93.9596 174.208 104.711Z" fill="url(#paint5_linear)"/>
	<path d="M145.252 80.0402C145.252 80.0402 147.023 77.1166 151.807 77.1166C161.876 77.1166 174.218 93.947 174.218 104.695C174.218 104.695 184.826 108.095 184.826 124.065C184.826 125.154 184.109 134.817 172.596 128.17C172.596 128.17 146.988 113.38 141.217 110.047C135.446 106.714 128.348 94.42 128.348 86.8015C128.348 79.1831 133.767 71.5075 145.252 80.0402Z" fill="#C5E4EC"/>
	<path d="M97.487 91.8456L85.082 98.4882C85.082 98.4882 102.825 103.654 102.825 129.159C102.825 130.218 102.668 136.376 98.2171 138.632C98.2272 138.647 98.2373 138.657 98.2373 138.657L109.558 132.199C114.003 129.943 114.424 123.839 114.424 122.785C114.429 97.275 97.487 91.8456 97.487 91.8456Z" fill="#0078D4"/>
	<path d="M97.487 91.8456L85.082 98.4882C85.082 98.4882 102.825 103.654 102.825 129.159C102.825 130.218 102.668 136.376 98.2171 138.632C98.2272 138.647 98.2373 138.657 98.2373 138.657L109.558 132.199C114.003 129.943 114.424 123.839 114.424 122.785C114.429 97.275 97.487 91.8456 97.487 91.8456Z" fill="url(#paint6_linear)"/>
	<path d="M39.7102 59.4532L51.3954 52.5115C42.2247 45.6981 35.4772 45.3534 31.0211 48.2379L20.5273 54.0628C24.9682 51.8626 31.229 53.1518 39.7102 59.4532Z" fill="#0078D4"/>
	<path d="M39.7102 59.4532L51.3954 52.5115C42.2247 45.6981 35.4772 45.3534 31.0211 48.2379L20.5273 54.0628C24.9682 51.8626 31.229 53.1518 39.7102 59.4532Z" fill="url(#paint7_linear)"/>
	<path d="M86.0809 98.3295L97.5633 91.8862C97.5633 74.7209 77.8532 47.8425 61.7728 47.8425C57.9909 47.8425 55.3903 48.9882 53.7224 50.144L43.8268 55.7458C45.4237 54.9702 47.5376 54.3669 50.2904 54.3669C66.3454 54.3618 86.0201 81.1591 86.0809 98.3295Z" fill="#0078D4"/>
	<path d="M86.0809 98.3295L97.5633 91.8862C97.5633 74.7209 77.8532 47.8425 61.7728 47.8425C57.9909 47.8425 55.3903 48.9882 53.7224 50.144L43.8268 55.7458C45.4237 54.9702 47.5376 54.3669 50.2904 54.3669C66.3454 54.3618 86.0201 81.1591 86.0809 98.3295Z" fill="url(#paint8_linear)"/>
	<path d="M39.837 58.9294C39.837 58.9294 42.6658 54.2604 50.3055 54.2604C66.3859 54.2604 86.0961 81.1388 86.0961 98.3041C86.0961 98.3041 103.038 103.734 103.038 129.238C103.038 130.977 101.893 146.408 83.5056 135.793C83.5056 135.793 42.6101 112.174 33.3937 106.851C24.1774 101.528 12.842 81.8942 12.842 69.7274C12.842 57.5607 21.4956 45.3027 39.837 58.9294Z" fill="#C5E4EC"/>
	<path d="M16.9558 117.302L26.8152 114.667L56.2826 108.829L52.3743 92.3134L50.6641 92.93L18.8612 115.368L16.9558 117.302Z" fill="#ACACAC"/>
	<path d="M38.0411 83.9823L16.9559 117.302L52.3744 92.3134L38.0411 83.9823Z" fill="#EDEDED"/>
	<path d="M60.2152 96.8692L16.9558 117.302L74.5507 105.198L60.2152 96.8692Z" fill="#EDEDED"/>
	<path d="M142.905 56.5432L152.765 53.9081L182.232 48.0701L178.324 31.5542L176.614 32.1708L144.811 54.609L142.905 56.5432Z" fill="#ACACAC"/>
	<path d="M163.99 23.2228L142.905 56.543L178.324 31.554L163.99 23.2228Z" fill="#EDEDED"/>
	<path d="M186.165 36.11L142.905 56.5431L200.5 44.4389L186.165 36.11Z" fill="#EDEDED"/>
	<path d="M0.500244 33.7582L10.3597 31.1231L39.827 25.2851L35.9187 8.7692L34.2086 9.38582L2.40558 31.824L0.500244 33.7582Z" fill="#ACACAC"/>
	<path d="M21.5854 0.437988L0.500244 33.7581L35.9187 8.76914L21.5854 0.437988Z" fill="#EDEDED"/>
	<path d="M43.7597 13.3251L0.500244 33.7581L58.0952 21.654L43.7597 13.3251Z" fill="#EDEDED"/>
	<defs>
		<linearGradient id="paint0_linear" x1="115.252" y1="30.2872" x2="115.252" y2="54.2546" gradientUnits="userSpaceOnUse">
			<stop stop-color="#69E2FF"/>
			<stop offset="1" stop-color="white" stop-opacity="0"/>
		</linearGradient>
		<linearGradient id="paint1_linear" x1="82.5904" y1="7.08362" x2="82.5904" y2="13.7023" gradientUnits="userSpaceOnUse">
			<stop stop-color="#69E2FF"/>
			<stop offset="1" stop-color="white" stop-opacity="0"/>
		</linearGradient>
		<linearGradient id="paint2_linear" x1="100.374" y1="7.75763" x2="100.374" y2="33.6069" gradientUnits="userSpaceOnUse">
			<stop stop-color="#69E2FF"/>
			<stop offset="1" stop-color="white" stop-opacity="0"/>
		</linearGradient>
		<linearGradient id="paint3_linear" x1="182.769" y1="100.651" x2="182.769" y2="129.963" gradientUnits="userSpaceOnUse">
			<stop stop-color="#69E2FF"/>
			<stop offset="1" stop-color="white" stop-opacity="0"/>
		</linearGradient>
		<linearGradient id="paint4_linear" x1="142.825" y1="72.2734" x2="142.825" y2="80.368" gradientUnits="userSpaceOnUse">
			<stop stop-color="#69E2FF"/>
			<stop offset="1" stop-color="white" stop-opacity="0"/>
		</linearGradient>
		<linearGradient id="paint5_linear" x1="164.574" y1="73.0978" x2="164.574" y2="104.711" gradientUnits="userSpaceOnUse">
			<stop stop-color="#69E2FF"/>
			<stop offset="1" stop-color="white" stop-opacity="0"/>
		</linearGradient>
		<linearGradient id="paint6_linear" x1="99.7531" y1="91.8456" x2="99.7531" y2="138.657" gradientUnits="userSpaceOnUse">
			<stop stop-color="#69E2FF"/>
			<stop offset="1" stop-color="white" stop-opacity="0"/>
		</linearGradient>
		<linearGradient id="paint7_linear" x1="35.9614" y1="46.526" x2="35.9614" y2="59.4532" gradientUnits="userSpaceOnUse">
			<stop stop-color="#69E2FF"/>
			<stop offset="1" stop-color="white" stop-opacity="0"/>
		</linearGradient>
		<linearGradient id="paint8_linear" x1="70.695" y1="47.8425" x2="70.695" y2="98.3295" gradientUnits="userSpaceOnUse">
			<stop stop-color="#69E2FF"/>
			<stop offset="1" stop-color="white" stop-opacity="0"/>
		</linearGradient>
	</defs>
</svg>
